
 <svg width="100%" height="100%" id="svg" viewBox="0 0 1440 690" xmlns="http://www.w3.org/2000/svg" class="transition duration-300 ease-in-out delay-150"><defs><linearGradient id="gradient" x1="17%" y1="87%" x2="83%" y2="13%"><stop offset="5%" stop-color="#F78DA7"></stop><stop offset="95%" stop-color="#0693e3"></stop></linearGradient></defs><path d="M 0,700 C 0,700 0,140 0,140 C 77.03349282296651,161.3205741626794 154.06698564593302,182.64114832535884 253,170 C 351.933014354067,157.35885167464116 472.76555023923436,110.75598086124404 576,93 C 679.2344497607656,75.24401913875596 764.8708133971294,86.33492822966505 846,97 C 927.1291866028706,107.66507177033495 1003.7511961722487,117.90430622009569 1102,125 C 1200.2488038277513,132.0956937799043 1320.1244019138758,136.04784688995215 1440,140 C 1440,140 1440,700 1440,700 Z" stroke="none" stroke-width="0" fill="url(#gradient)" fill-opacity="0.265" class="transition-all duration-300 ease-in-out delay-150 path-0"></path><defs><linearGradient id="gradient" x1="17%" y1="87%" x2="83%" y2="13%"><stop offset="5%" stop-color="#F78DA7"></stop><stop offset="95%" stop-color="#0693e3"></stop></linearGradient></defs><path d="M 0,700 C 0,700 0,280 0,280 C 83.54066985645932,258.7942583732057 167.08133971291863,237.58851674641147 273,236 C 378.91866028708137,234.41148325358853 507.21531100478467,252.4401913875598 619,252 C 730.7846889952153,251.5598086124402 826.0574162679427,232.65071770334927 911,234 C 995.9425837320573,235.34928229665073 1070.5550239234449,256.9569377990431 1157,268 C 1243.4449760765551,279.0430622009569 1341.7224880382776,279.52153110047846 1440,280 C 1440,280 1440,700 1440,700 Z" stroke="none" stroke-width="0" fill="url(#gradient)" fill-opacity="0.4" class="transition-all duration-300 ease-in-out delay-150 path-1"></path><defs><linearGradient id="gradient" x1="17%" y1="87%" x2="83%" y2="13%"><stop offset="5%" stop-color="#F78DA7"></stop><stop offset="95%" stop-color="#0693e3"></stop></linearGradient></defs><path d="M 0,700 C 0,700 0,420 0,420 C 117.81818181818184,402.90909090909093 235.63636363636368,385.81818181818187 322,382 C 408.3636363636363,378.18181818181813 463.27272727272714,387.63636363636357 551,399 C 638.7272727272729,410.36363636363643 759.2727272727275,423.63636363636374 859,432 C 958.7272727272725,440.36363636363626 1037.6363636363635,443.8181818181818 1131,441 C 1224.3636363636365,438.1818181818182 1332.1818181818182,429.0909090909091 1440,420 C 1440,420 1440,700 1440,700 Z" stroke="none" stroke-width="0" fill="url(#gradient)" fill-opacity="0.53" class="transition-all duration-300 ease-in-out delay-150 path-2"></path><defs><linearGradient id="gradient" x1="17%" y1="87%" x2="83%" y2="13%"><stop offset="5%" stop-color="#F78DA7"></stop><stop offset="95%" stop-color="#0693e3"></stop></linearGradient></defs><path d="M 0,700 C 0,700 0,560 0,560 C 72.6602870813397,570.9473684210526 145.3205741626794,581.8947368421052 254,588 C 362.6794258373206,594.1052631578948 507.37799043062194,595.3684210526317 601,587 C 694.6220095693781,578.6315789473683 737.1674641148326,560.6315789473684 818,554 C 898.8325358851674,547.3684210526316 1017.9521531100479,552.1052631578947 1128,555 C 1238.047846889952,557.8947368421053 1339.023923444976,558.9473684210527 1440,560 C 1440,560 1440,700 1440,700 Z" stroke="none" stroke-width="0" fill="url(#gradient)" fill-opacity="1" class="transition-all duration-300 ease-in-out delay-150 path-3"></path></svg>